<!DOCTYPE svg PUBLIC "-//W3C//DTD SVG 20010904//EN" "http://www.w3.org/TR/2001/REC-SVG-20010904/DTD/svg10.dtd">
<svg version="1.0" xmlns="http://www.w3.org/2000/svg" width="300px" height="300px" viewBox="0 0 3000 3000" preserveAspectRatio="xMidYMid meet">
<g id="layer101" fill="#fdfefe" stroke="none">
 <path d="M1138 2124 l-358 -207 0 -417 0 -417 353 -204 c193 -112 359 -203 367 -203 8 0 174 91 368 203 l352 204 0 417 0 417 -349 201 c-191 111 -354 204 -362 207 -8 3 -175 -88 -371 -201z m686 -84 l305 -175 0 -365 0 -365 -305 -175 c-168 -96 -313 -176 -322 -177 -9 -1 -154 78 -322 175 l-305 177 -2 365 -2 365 307 177 c169 98 315 176 324 175 10 -1 155 -81 322 -177z"/>
 <path d="M1375 1981 c-125 -21 -197 -62 -225 -131 -47 -114 79 -344 228 -417 78 -38 174 -39 247 -1 120 62 235 234 235 353 0 97 -42 146 -155 180 -59 18 -259 27 -330 16z"/>
 <path d="M1035 1591 c-155 -72 -154 -282 2 -315 22 -5 45 -1 76 12 115 51 149 210 63 290 -42 38 -80 41 -141 13z"/>
 <path d="M1850 1597 c-66 -33 -92 -145 -51 -225 24 -46 46 -67 95 -87 106 -45 217 60 186 175 -27 101 -153 176 -230 137z"/>
 <path d="M1284 1371 c-73 -44 -114 -138 -93 -213 14 -52 67 -105 115 -114 78 -14 162 54 171 140 9 73 -4 112 -51 161 -49 52 -89 59 -142 26z"/>
 <path d="M1590 1364 c-78 -66 -94 -187 -33 -261 58 -73 147 -81 209 -19 63 63 66 156 7 234 -55 74 -128 92 -183 46z"/>
 </g>
<g id="layer102" fill="#64b3e8" stroke="none">
 <path d="M1471 2866 c-31 -49 -61 -177 -68 -284 -6 -89 -7 -93 -27 -87 -125 41 -166 43 -166 9 0 -18 83 -105 135 -141 16 -12 28 -23 25 -26 -12 -11 -532 -308 -534 -305 -1 2 -7 37 -13 79 -23 170 -86 187 -116 31 l-11 -60 -76 38 c-87 44 -190 77 -266 86 -70 9 -79 -10 -37 -69 37 -52 182 -178 237 -207 l41 -22 -64 -63 c-34 -35 -61 -70 -59 -77 8 -23 106 -14 172 16 32 14 60 26 62 26 2 0 4 -139 4 -310 0 -170 -2 -310 -4 -310 -2 0 -30 12 -62 26 -66 30 -164 39 -172 16 -2 -7 25 -41 59 -76 l64 -62 -68 -45 c-73 -46 -192 -155 -222 -201 -29 -47 -14 -62 53 -55 69 7 216 57 287 97 l51 28 11 -60 c13 -66 36 -108 59 -108 22 0 52 76 60 153 4 37 9 67 11 67 4 0 526 -301 533 -308 3 -2 -8 -14 -25 -26 -16 -11 -54 -44 -83 -72 -81 -79 -66 -110 42 -82 34 9 68 19 77 23 14 5 17 -7 22 -87 10 -146 62 -313 98 -313 37 0 99 214 99 344 0 56 2 62 18 56 9 -3 44 -14 78 -23 108 -28 123 2 42 83 -29 28 -66 61 -83 72 -16 12 -28 23 -25 26 8 7 529 307 533 307 2 0 7 -30 11 -67 8 -77 38 -153 60 -153 23 0 46 42 59 108 l11 60 76 -38 c141 -71 319 -109 328 -69 7 38 -152 197 -258 257 l-46 25 64 63 c36 34 62 68 60 76 -8 23 -105 14 -172 -16 -32 -14 -60 -26 -62 -26 -2 0 -4 140 -4 311 0 293 1 311 18 304 124 -53 210 -68 220 -37 2 7 -25 41 -59 76 l-64 62 68 45 c73 46 192 155 222 201 29 47 14 62 -53 55 -69 -7 -216 -57 -287 -97 l-51 -28 -11 60 c-30 156 -93 139 -116 -31 -6 -42 -12 -77 -13 -79 -2 -3 -522 294 -534 305 -3 3 9 14 25 26 17 11 54 44 83 72 81 81 66 111 -42 83 -34 -9 -68 -19 -77 -23 -14 -5 -17 7 -22 87 -9 132 -66 318 -97 318 -5 0 -18 -15 -29 -34z m379 -755 l345 -199 0 -412 0 -412 -345 -199 c-190 -109 -347 -199 -350 -199 -3 0 -160 90 -350 199 l-345 199 0 412 0 412 345 199 c190 109 347 199 350 199 3 0 160 -90 350 -199z"/>
 <path d="M1170 2056 l-315 -182 0 -374 0 -373 315 -183 c173 -100 322 -183 330 -183 8 0 157 82 330 183 l315 182 0 374 0 374 -315 182 c-173 101 -322 183 -330 183 -8 0 -157 -82 -330 -183z m459 -96 c95 -13 174 -48 195 -89 9 -17 16 -55 16 -88 0 -114 -104 -274 -215 -331 -73 -38 -169 -37 -247 1 -140 69 -254 286 -208 397 7 17 26 41 42 55 63 53 245 77 417 55z m-464 -392 c49 -43 52 -153 5 -218 -55 -77 -187 -71 -220 11 -17 39 -8 124 17 157 25 34 98 72 140 72 19 0 43 -9 58 -22z m801 3 c133 -61 133 -252 -1 -277 -22 -4 -47 1 -78 14 -57 25 -87 78 -87 152 0 113 66 157 166 111z m-550 -236 c75 -80 51 -235 -42 -265 -74 -25 -143 13 -164 89 -26 99 47 211 139 211 26 0 42 -8 67 -35z m304 13 c102 -70 98 -241 -7 -277 -90 -32 -163 24 -171 129 -9 130 87 210 178 148z"/>
 </g>

</svg>