<?xml version="1.0"?>
<svg xmlns="http://www.w3.org/2000/svg" xmlns:xlink="http://www.w3.org/1999/xlink" version="1.1" viewBox="0 0 252 252" width="528px" height="528px"><g fill="none" fill-rule="nonzero" stroke="none" stroke-width="1" stroke-linecap="butt" stroke-linejoin="miter" stroke-miterlimit="10" stroke-dasharray="" stroke-dashoffset="0" font-family="none" font-weight="none" font-size="none" text-anchor="none" style="mix-blend-mode: normal"><path d="M0,252v-252h252v252z" fill="none"/><g><g id="surface1"><path d="M126,21c-57.99609,0 -105,47.00391 -105,105h210c0,-57.99609 -47.00391,-105 -105,-105z" fill="#f9d655"/><path d="M126,231c57.99609,0 105,-47.00391 105,-105h-210c0,57.99609 47.00391,105 105,105z" fill="#e4e8ea"/><path d="M126,231c57.99609,0 105,-47.00391 105,-105c0,0 -0.84082,84 -105,84c-104.15918,0 -105,-84 -105,-84c0,57.99609 47.00391,105 105,105z" fill="#cfd8dc"/><path d="M21,126c0,1.78418 0.18457,3.50684 0.2666,5.25h209.4668c0.10254,-1.74316 0.2666,-3.46582 0.2666,-5.25c0,-1.78418 -0.18457,-3.50684 -0.2666,-5.25h-209.4668c-0.08203,1.74316 -0.2666,3.46582 -0.2666,5.25z" fill="#37474f"/><path d="M157.5,126c0,17.39063 -14.10937,31.5 -31.5,31.5c-17.39062,0 -31.5,-14.10937 -31.5,-31.5c0,-17.39062 14.10938,-31.5 31.5,-31.5c17.39063,0 31.5,14.10938 31.5,31.5z" fill="#ffffff"/><path d="M126,105c11.58691,0 21,9.41309 21,21c0,11.58691 -9.41309,21 -21,21c-11.58691,0 -21,-9.41309 -21,-21c0,-11.58691 9.41309,-21 21,-21M126,94.5c-17.39062,0 -31.5,14.10938 -31.5,31.5c0,17.39063 14.10938,31.5 31.5,31.5c17.39063,0 31.5,-14.10937 31.5,-31.5c0,-17.39062 -14.10937,-31.5 -31.5,-31.5z" fill="#37474f"/><path d="M136.5,126c0,5.80371 -4.69629,10.5 -10.5,10.5c-5.80371,0 -10.5,-4.69629 -10.5,-10.5c0,-5.80371 4.69629,-10.5 10.5,-10.5c5.80371,0 10.5,4.69629 10.5,10.5z" fill="#37474f"/></g></g></g></svg>
